HIERARCHY
ROOT Hips
{
	OFFSET 0.000000 0.950198 0.000000
	CHANNELS 6 Xposition Yposition Zposition Zrotation Yrotation Xrotation 
	JOINT LeftUpLeg
	{
		OFFSET 0.054186 -0.120336 -0.016047
		CHANNELS 3 Zrotation Yrotation Xrotation
		JOINT LeftLeg
		{
			OFFSET 0.072326 -0.368242 -0.007290
			CHANNELS 3 Zrotation Yrotation Xrotation
			JOINT LeftFoot
			{
				OFFSET -0.022851 -0.420467 -0.117070
				CHANNELS 3 Zrotation Yrotation Xrotation
				End Site #name: LeftToeBase
				{
					OFFSET 0.064242 -0.039712 0.123310
				}
			}
		}
	}
	JOINT rightUpLeg
	{
		OFFSET -0.066480 -0.124629 -0.012790
		CHANNELS 3 Zrotation Yrotation Xrotation
		JOINT RightLeg
		{
			OFFSET -0.084095 -0.360423 -0.010046
			CHANNELS 3 Zrotation Yrotation Xrotation
			JOINT RightFoot
			{
				OFFSET 0.011948 -0.424660 -0.069496
				CHANNELS 3 Zrotation Yrotation Xrotation
				End Site #name: RightToeBase
				{
					OFFSET -0.036178 -0.042419 0.144583
				}
			}
		}
	}
	JOINT Spine
	{
		OFFSET 0.010385 0.082415 -0.034454
		CHANNELS 3 Zrotation Yrotation Xrotation
		JOINT Spine1
		{
			OFFSET 0.019789 0.160583 -0.004941
			CHANNELS 3 Zrotation Yrotation Xrotation
			JOINT Spine2
			{
				OFFSET 0.000707 0.069618 0.006963
				CHANNELS 3 Zrotation Yrotation Xrotation
				JOINT Neck
				{
					OFFSET -0.003480 0.219500 -0.058014
					CHANNELS 3 Zrotation Yrotation Xrotation
					End Site #name: Head
					{
						OFFSET -0.008487 0.054425 0.047794
					}
				}
				JOINT LeftShoulder
				{
					OFFSET 0.075500 0.128061 -0.030627
					CHANNELS 3 Zrotation Yrotation Xrotation
					JOINT LeftArm
					{
						OFFSET 0.127606 -0.045624 0.003773
						CHANNELS 3 Zrotation Yrotation Xrotation
						JOINT LeftForeArm
						{
							OFFSET 0.042650 -0.277623 0.044029
							CHANNELS 3 Zrotation Yrotation Xrotation
							End Site #name: LeftHand
							{
								OFFSET 0.020179 -0.166812 0.205808
							}
						}
					}
				}
				JOINT RightShoulder
				{
					OFFSET -0.076975 0.137091 -0.044512
					CHANNELS 3 Zrotation Yrotation Xrotation
					JOINT RightArm
					{
						OFFSET -0.111261 -0.022460 0.018313
						CHANNELS 3 Zrotation Yrotation Xrotation
						JOINT RightForeArm
						{
							OFFSET -0.080764 -0.230840 0.085587
							CHANNELS 3 Zrotation Yrotation Xrotation
							End Site #name: RightHand
							{
								OFFSET 0.017657 -0.123381 0.243606
							}
						}
					}
				}
			}
		}
	}
}
MOTION
Frames: 21
Frame Time: 0.041667
0.000000 0.950198 0.000000 0.000000 0.000000 0.000000 0.000000 0.000000 0.000000 0.000000 0.000000 0.000000 0.000000 0.000000 0.000000 0.000000 0.000000 0.000000 0.000000 0.000000 0.000000 0.000000 0.000000 0.000000 0.000000 0.000000 0.000000 -0.000000 0.000000 0.000000 0.000000 0.000000 -0.000000 0.000000 0.000000 0.000000 0.000000 0.000000 0.000000 0.000000 0.000000 0.000000 0.000000 -0.000000 -0.000000 0.000000 -0.000000 0.000000 0.000000 0.000000 0.000000 0.000000 0.000000 0.000000 
0.000454 0.950282 0.000339 -0.015326 0.061471 -0.012695 0.067173 -0.005016 -0.018825 -0.067555 0.029472 -0.198635 -0.010197 0.128976 0.099498 0.045111 0.007032 -0.035465 -0.158244 0.024614 -0.043442 0.090920 0.079066 0.269714 -0.101596 0.006817 -0.081275 0.162855 -0.016567 0.024022 -0.043172 0.048149 -0.207553 -0.140145 0.175981 0.333601 0.352296 -0.069280 -0.035437 0.603070 -0.001101 -0.652064 -0.331691 -0.496842 -0.676674 -0.999838 0.476625 -0.265233 -0.888872 -0.027526 -0.882865 0.672643 1.045808 -2.359955 
0.000993 0.950505 0.000707 -0.089364 0.084536 0.043531 0.203162 -0.014525 -0.053988 -0.112783 0.057303 -0.486704 -0.041380 0.186934 0.195482 0.205798 0.010658 -0.069708 -0.336437 0.045934 -0.293167 0.129857 0.093408 0.407675 -0.121563 0.005332 -0.074267 0.197788 -0.015815 -0.333635 -0.062905 0.079946 -0.197430 -0.329233 0.339454 0.310904 0.644514 0.140958 0.032202 1.067812 0.013403 -1.080644 -0.411149 -0.686375 -1.355143 -2.557330 0.575215 -0.551981 -2.284980 -0.071645 -2.350788 1.502221 2.410464 -6.221232 
0.001623 0.950541 0.001179 -0.210943 0.077338 0.107974 0.396250 -0.012040 -0.021782 -0.173284 0.089348 -0.781248 -0.057453 0.243557 0.261700 0.343456 0.018149 -0.117256 -0.427201 0.050880 -0.596092 0.147424 0.090381 0.481063 -0.022298 0.003616 -0.034964 0.121065 -0.003662 -0.753290 -0.087727 0.086194 -0.089665 -0.312951 0.312398 0.232482 0.872129 0.416001 0.126476 1.268846 0.040345 -1.128570 -0.191771 -0.465241 -1.790222 -4.295450 0.432142 -0.816450 -3.962254 -0.208154 -4.000115 2.209725 3.685840 -11.015655 
0.002404 0.950371 0.001749 -0.324931 0.059620 0.164200 0.561642 -0.001768 0.048822 -0.234831 0.120650 -1.062958 -0.037670 0.317550 0.269879 0.420808 0.029479 -0.173775 -0.468625 0.049988 -0.826998 0.146931 0.063552 0.510858 0.171800 0.001343 0.031611 -0.064165 0.017083 -1.113360 -0.113454 0.082887 0.016978 -0.126828 0.140260 0.182524 1.062460 0.728608 0.236681 1.402309 0.089442 -0.940029 0.149338 -0.073863 -2.142518 -6.078339 0.147223 -1.049951 -5.916063 -0.506775 -5.658619 2.732531 4.753212 -16.608255 
0.003364 0.950154 0.002403 -0.425676 0.049580 0.235665 0.674228 -0.002523 0.056803 -0.291241 0.147373 -1.288720 0.012442 0.425371 0.240843 0.457091 0.034364 -0.198362 -0.484073 0.044241 -1.078966 0.135254 0.025434 0.509576 0.438849 -0.005345 0.148317 -0.322697 0.043295 -1.509448 -0.151019 0.071536 0.153533 0.183043 -0.142394 0.119501 1.177501 1.119426 0.378439 1.556734 0.184685 -0.442320 0.535486 0.385985 -2.447132 -8.073950 -0.441618 -1.229076 -8.386900 -1.032409 -7.515298 3.049690 5.465962 -23.581012 
0.004520 0.950104 0.003128 -0.493087 0.060306 0.319559 0.686668 -0.022493 -0.046869 -0.303957 0.156764 -1.406121 0.052038 0.499295 0.210807 0.462319 0.029032 -0.176491 -0.478537 0.034060 -1.367590 0.103367 -0.075818 0.502714 0.740859 -0.020412 0.333033 -0.591268 0.068655 -1.928985 -0.236372 0.048597 0.333142 0.606425 -0.528874 0.022046 1.191430 1.574802 0.546486 1.636773 0.307826 0.352055 0.967476 0.933949 -2.524680 -10.243455 -1.354751 -1.322055 -11.254806 -1.781298 -9.520979 3.111813 5.363917 -31.453650 
0.005871 0.950404 0.003948 -0.518867 0.100132 0.385329 0.570612 -0.058442 -0.246588 -0.216458 0.133482 -1.404542 0.046689 0.536046 0.244218 0.423217 0.008524 -0.085703 -0.433824 0.016992 -1.690450 0.056845 -0.249627 0.523987 1.042053 -0.045230 0.583783 -0.868063 0.092828 -2.405659 -0.370720 0.018148 0.617040 1.213917 -1.092266 -0.204761 1.157885 1.990364 0.700465 1.527045 0.417718 1.262356 1.481379 1.622851 -2.233274 -12.613754 -2.426200 -1.361638 -14.405306 -2.692712 -11.862599 2.970413 3.502777 -39.689259 
0.007352 0.951019 0.004837 -0.551542 0.166901 0.407815 0.372111 -0.102584 -0.493319 0.019155 0.066206 -1.316131 0.015234 0.535782 0.304789 0.355224 -0.030704 0.087893 -0.321994 -0.010781 -2.052023 0.018653 -0.406918 0.559416 1.370123 -0.081687 0.915340 -1.171125 0.116618 -3.036845 -0.540619 0.001299 1.010138 2.220565 -2.020635 -0.633440 1.131877 2.392856 0.849344 1.109478 0.477931 2.112278 2.151892 2.541428 -1.438555 -15.245888 -3.469130 -1.404251 -17.754521 -3.776724 -14.533120 2.906239 -1.965716 -47.874854 
0.008900 0.952024 0.005754 -0.635882 0.266688 0.428390 0.157130 -0.161397 -0.811889 0.372412 -0.035214 -1.187198 0.000941 0.436750 0.270155 0.275843 -0.075674 0.288201 -0.159239 -0.044655 -2.399875 0.005250 -0.417209 0.517634 1.725742 -0.133951 1.351092 -1.439731 0.134010 -3.948175 -0.743281 0.018876 1.475901 3.691069 -3.355931 -1.339661 1.063044 2.960010 1.058879 0.422123 0.477132 2.749037 2.968805 3.648106 -0.051592 -18.145312 -4.511551 -1.435375 -21.381056 -5.140843 -17.425044 3.395561 -12.789748 -54.138497 
0.010449 0.953231 0.006678 -0.706265 0.392050 0.472450 0.010452 -0.232585 -1.183902 0.650517 -0.119574 -1.021083 -0.031528 0.142333 0.148791 0.156245 -0.102494 0.417985 0.009175 -0.074422 -2.608652 -0.029112 -0.334702 0.279523 1.959475 -0.208595 1.913567 -1.535380 0.136462 -5.078478 -1.009256 0.062224 1.933915 5.191776 -4.673936 -1.969407 1.011736 3.666540 1.319200 -0.262998 0.431419 3.044399 3.772938 4.684887 1.318662 -20.673648 -5.225767 -1.497047 -24.647841 -6.556233 -19.922082 3.971440 -26.561141 -56.032866 
0.011893 0.954587 0.007691 -0.658861 0.562667 0.616902 -0.020871 -0.325693 -1.659102 0.803716 -0.160412 -1.027168 -0.185900 -0.200376 0.232276 -0.027561 -0.100354 0.433822 0.096870 -0.090772 -2.757986 -0.191640 -0.665746 0.016240 1.957789 -0.320923 2.712823 -1.490779 0.129406 -6.625547 -1.308527 0.127604 2.356256 6.300192 -5.592948 -1.848872 1.120498 4.488510 1.623868 -0.812933 0.357444 3.032405 4.372362 5.416257 1.972005 -23.334707 -5.124933 -1.893273 -27.763775 -8.074948 -22.088247 3.186800 -42.344527 -53.522426 
0.013145 0.955804 0.008678 -0.201707 0.841681 0.944470 -0.251509 -0.433831 -2.209099 0.668752 -0.098570 -1.450756 -0.114398 -0.139294 0.133223 0.104219 -0.059733 0.242544 -0.800270 0.034383 -2.746037 -0.717258 -2.008234 -0.540889 1.753720 -0.358006 2.970277 -2.092271 0.133658 -9.175249 -1.312182 0.346396 4.284478 8.355590 -7.268265 -0.380474 2.653726 5.160141 1.905469 -1.245143 0.038215 1.432844 3.038907 3.784631 0.893218 -27.925381 -2.640062 -3.698505 -32.237450 -10.491030 -25.427931 -12.199152 -65.252990 -30.967729 
0.014282 0.956041 0.009490 -0.091275 0.920931 0.992796 -0.464494 -0.457770 -2.328227 0.783569 -0.126793 -1.486680 -0.033722 -0.276253 -0.105452 0.179641 -0.090557 0.364033 -1.034841 0.061355 -2.898884 -0.805692 -1.996234 -0.938110 1.656985 -0.367103 3.033152 -2.434467 0.135368 -9.621996 -1.357692 0.359609 4.591925 9.000821 -7.812749 -0.024353 2.943942 5.355242 1.987563 -1.318971 -0.061051 0.897229 3.069117 3.805386 0.594371 -30.025629 -2.855714 -3.944028 -34.163111 -11.634626 -25.685451 -22.267672 -67.124420 -17.652565 
0.015367 0.956078 0.010169 -0.034313 0.969154 1.018003 -0.618046 -0.481839 -2.446423 0.881098 -0.160344 -1.362364 0.034633 -0.326325 -0.266886 0.301250 -0.147573 0.589372 -1.228223 0.072484 -3.298738 -0.839403 -1.857575 -1.254893 1.469242 -0.367871 3.033406 -2.661873 0.137534 -9.728773 -1.326414 0.386975 4.630965 9.378247 -8.131206 0.437105 3.168135 5.549880 2.068953 -1.438016 -0.206021 0.134836 2.985775 3.688135 0.297766 -32.008569 -3.103420 -4.150041 -35.884334 -12.658150 -25.632059 -32.109376 -66.943440 -4.337089 
0.016396 0.956062 0.010554 -0.063341 1.000988 0.990601 -0.646945 -0.507476 -2.572875 0.903952 -0.185810 -1.052199 0.121150 -0.350798 -0.447424 0.421334 -0.195967 0.776436 -1.321531 0.076313 -3.518263 -0.842385 -1.713502 -1.443383 1.289821 -0.370553 3.048145 -2.737716 0.138972 -9.705874 -1.243287 0.409200 4.548901 9.632907 -8.349815 0.624758 3.259327 5.608240 2.094164 -1.564766 -0.333881 -0.506765 2.908701 3.589588 0.216773 -33.220224 -3.369081 -4.213168 -36.993601 -13.314636 -25.595122 -37.221483 -65.644195 3.329681 
0.017479 0.956109 0.010684 -0.129785 1.021875 0.951553 -0.604047 -0.525761 -2.664228 0.877775 -0.195608 -0.782227 0.197397 -0.366918 -0.603271 0.526517 -0.226077 0.887306 -1.379450 0.079941 -3.618871 -0.829452 -1.626922 -1.492710 1.159493 -0.378287 3.102444 -2.742456 0.138584 -9.738983 -1.151153 0.427190 4.501340 9.746494 -8.448404 0.594392 3.308862 5.600679 2.092498 -1.699214 -0.446391 -1.040208 2.879196 3.556549 0.269066 -33.798054 -3.532823 -4.221717 -37.607943 -13.678024 -25.598241 -39.233863 -64.438982 6.934421 
0.018651 0.956192 0.010642 -0.212813 1.032578 0.910205 -0.525917 -0.527403 -2.674089 0.837546 -0.192099 -0.662851 0.280125 -0.305046 -0.724385 0.634215 -0.250308 0.972307 -1.430744 0.082438 -3.723497 -0.806708 -1.583149 -1.448341 1.086154 -0.390075 3.189428 -2.717267 0.137225 -9.811333 -1.096769 0.436913 4.481810 9.869092 -8.555132 0.440307 3.318731 5.547291 2.071804 -1.791533 -0.537368 -1.481853 2.894807 3.579981 0.346360 -34.044149 -3.594531 -4.229183 -37.961664 -13.886124 -25.575656 -39.869178 -63.501248 8.564728 
0.019892 0.956298 0.010510 -0.292756 1.038159 0.871043 -0.450136 -0.519122 -2.634449 0.800908 -0.182773 -0.652236 0.376636 -0.141894 -0.810827 0.743370 -0.274706 1.057055 -1.482787 0.084344 -3.842590 -0.773547 -1.512420 -1.392228 1.032087 -0.404322 3.296112 -2.667832 0.135816 -9.865288 -1.077157 0.434305 4.433417 10.034456 -8.698067 0.280529 3.284751 5.433092 2.026157 -1.761103 -0.588415 -1.811954 2.907721 3.595538 0.343232 -34.105403 -3.617098 -4.227121 -38.148106 -13.992960 -25.497911 -39.895765 -62.879000 9.144830 
0.021174 0.956428 0.010349 -0.366967 1.036233 0.856277 -0.375560 -0.511957 -2.600103 0.761408 -0.167681 -0.722815 0.445645 0.051790 -0.825873 0.845911 -0.295750 1.128236 -1.520537 0.084144 -3.965623 -0.740869 -1.418964 -1.365748 0.974116 -0.415939 3.383600 -2.576238 0.134581 -9.864485 -1.089282 0.417585 4.334512 10.257318 -8.889614 0.196322 3.227669 5.280591 1.965064 -1.660097 -0.604402 -2.010836 2.923582 3.610920 0.273016 -34.044247 -3.668034 -4.189666 -38.127505 -13.977584 -25.419162 -39.503600 -62.604266 8.875449 
0.022463 0.956553 0.010203 -0.436341 1.025268 0.870712 -0.308056 -0.514910 -2.616216 0.712010 -0.150943 -0.777223 0.474358 0.203390 -0.788641 0.930668 -0.306243 1.158137 -1.535765 0.083021 -4.039815 -0.723093 -1.312182 -1.418264 0.901059 -0.422703 3.434756 -2.444373 0.133192 -9.828681 -1.111021 0.394723 4.215225 10.502468 -9.099749 0.138445 3.147536 5.132621 1.905434 -1.539616 -0.607829 -2.158100 2.940241 3.626680 0.191368 -33.925549 -3.790491 -4.104498 -38.018311 -13.913589 -25.425703 -39.023613 -62.478665 8.356980 
